<svg width="611" height="139" viewBox="0 0 611 139" fill="none" xmlns="http://www.w3.org/2000/svg">
<path d="M2.79 50H10.485V18.41H2.79V50ZM24.0676 37.4C24.0676 45.32 28.9726 50.36 35.1376 50.36C38.8276 50.36 41.4826 48.695 42.8776 46.4V50H50.5726V16.7H42.8776V28.355C41.3476 26.06 38.4676 24.53 35.1376 24.53C28.9726 24.53 24.0676 29.48 24.0676 37.4ZM42.8776 37.445C42.8776 41.45 40.3126 43.655 37.3876 43.655C34.5076 43.655 31.8976 41.405 31.8976 37.4C31.8976 33.395 34.5076 31.235 37.3876 31.235C40.3126 31.235 42.8776 33.44 42.8776 37.445ZM67.2096 30.695C69.7746 30.695 71.9346 32.27 71.9346 35.015H62.3046C62.7546 32.225 64.6896 30.695 67.2096 30.695ZM79.2246 41.675H71.0346C70.4046 43.025 69.1896 44.105 67.0296 44.105C64.5546 44.105 62.5296 42.575 62.2596 39.29H79.6746C79.7646 38.525 79.8096 37.76 79.8096 37.04C79.8096 29.39 74.6346 24.53 67.2996 24.53C59.8296 24.53 54.6096 29.48 54.6096 37.445C54.6096 45.41 59.9196 50.36 67.2996 50.36C73.5546 50.36 78.0096 46.58 79.2246 41.675ZM104.254 42.71C104.119 33.35 90.5291 36.185 90.5291 32.18C90.5291 30.965 91.5191 30.245 93.3191 30.245C95.4791 30.245 96.7841 31.37 97.0091 33.08H104.119C103.624 28.13 100.024 24.53 93.5441 24.53C86.9741 24.53 83.3291 28.04 83.3291 32.315C83.3291 41.54 97.0091 38.615 97.0091 42.665C97.0091 43.79 95.9741 44.69 93.9941 44.69C91.8791 44.69 90.3041 43.52 90.1241 41.765H82.5191C82.8791 46.625 87.3791 50.36 94.0841 50.36C100.384 50.36 104.254 47.075 104.254 42.71ZM108.962 50H116.657V24.89H108.962V50ZM112.832 22.28C115.532 22.28 117.377 20.435 117.377 18.14C117.377 15.8 115.532 13.955 112.832 13.955C110.087 13.955 108.242 15.8 108.242 18.14C108.242 20.435 110.087 22.28 112.832 22.28ZM120.703 37.4C120.703 45.32 125.608 50.36 131.773 50.36C135.463 50.36 138.118 48.605 139.513 46.4V49.955C139.513 54.185 137.218 55.715 134.293 55.715C131.638 55.715 129.748 54.5 129.253 52.61H121.648C122.323 58.595 127.183 62.375 134.653 62.375C143.338 62.375 147.208 56.66 147.208 49.955V24.89H139.513V28.445C138.163 26.195 135.463 24.53 131.773 24.53C125.608 24.53 120.703 29.48 120.703 37.4ZM139.513 37.445C139.513 41.45 136.948 43.655 134.023 43.655C131.143 43.655 128.533 41.405 128.533 37.4C128.533 33.395 131.143 31.235 134.023 31.235C136.948 31.235 139.513 33.44 139.513 37.445ZM170.1 50H177.75V35.33C177.75 28.58 173.88 24.62 168.075 24.62C164.7 24.62 162 26.105 160.47 28.22V24.89H152.775V50H160.47V36.365C160.47 32.945 162.36 31.055 165.285 31.055C168.21 31.055 170.1 32.945 170.1 36.365V50ZM191.104 37.4C191.104 45.32 196.009 50.36 202.174 50.36C205.864 50.36 208.519 48.695 209.914 46.4V50H217.609V16.7H209.914V28.355C208.384 26.06 205.504 24.53 202.174 24.53C196.009 24.53 191.104 29.48 191.104 37.4ZM209.914 37.445C209.914 41.45 207.349 43.655 204.424 43.655C201.544 43.655 198.934 41.405 198.934 37.4C198.934 33.395 201.544 31.235 204.424 31.235C207.349 31.235 209.914 33.44 209.914 37.445ZM223.176 50H230.871V24.89H223.176V50ZM227.046 22.28C229.746 22.28 231.591 20.435 231.591 18.14C231.591 15.8 229.746 13.955 227.046 13.955C224.301 13.955 222.456 15.8 222.456 18.14C222.456 20.435 224.301 22.28 227.046 22.28ZM234.917 37.4C234.917 45.32 239.822 50.36 245.987 50.36C249.677 50.36 252.332 48.605 253.727 46.4V49.955C253.727 54.185 251.432 55.715 248.507 55.715C245.852 55.715 243.962 54.5 243.467 52.61H235.862C236.537 58.595 241.397 62.375 248.867 62.375C257.552 62.375 261.422 56.66 261.422 49.955V24.89H253.727V28.445C252.377 26.195 249.677 24.53 245.987 24.53C239.822 24.53 234.917 29.48 234.917 37.4ZM253.727 37.445C253.727 41.45 251.162 43.655 248.237 43.655C245.357 43.655 242.747 41.405 242.747 37.4C242.747 33.395 245.357 31.235 248.237 31.235C251.162 31.235 253.727 33.44 253.727 37.445ZM266.989 50H274.684V24.89H266.989V50ZM270.859 22.28C273.559 22.28 275.404 20.435 275.404 18.14C275.404 15.8 273.559 13.955 270.859 13.955C268.114 13.955 266.269 15.8 266.269 18.14C266.269 20.435 268.114 22.28 270.859 22.28ZM281.476 41.27C281.476 47.795 285.121 50 290.341 50H294.256V43.475H291.511C289.801 43.475 289.171 42.845 289.171 41.36V31.28H294.211V24.89H289.171V18.77H281.476V24.89H278.416V31.28H281.476V41.27ZM297.012 37.4C297.012 45.32 301.917 50.36 308.037 50.36C311.772 50.36 314.427 48.65 315.822 46.445V50H323.517V24.89H315.822V28.445C314.472 26.24 311.817 24.53 308.082 24.53C301.917 24.53 297.012 29.48 297.012 37.4ZM315.822 37.445C315.822 41.45 313.257 43.655 310.332 43.655C307.452 43.655 304.842 41.405 304.842 37.4C304.842 33.395 307.452 31.235 310.332 31.235C313.257 31.235 315.822 33.44 315.822 37.445ZM329.084 50H336.779V16.7H329.084V50ZM359.587 28.445V24.89H351.892V61.97H359.587V46.49C360.982 48.605 363.637 50.36 367.327 50.36C373.492 50.36 378.397 45.32 378.397 37.4C378.397 29.48 373.492 24.53 367.327 24.53C363.637 24.53 360.982 26.24 359.587 28.445ZM370.567 37.4C370.567 41.405 367.957 43.655 365.032 43.655C362.152 43.655 359.542 41.45 359.542 37.445C359.542 33.44 362.152 31.235 365.032 31.235C367.957 31.235 370.567 33.395 370.567 37.4ZM390.129 38.345C390.129 34.025 392.244 32.765 395.889 32.765H398.004V24.62C394.629 24.62 391.884 26.42 390.129 29.075V24.89H382.434V50H390.129V38.345ZM426.252 37.445C426.252 29.48 420.582 24.53 413.202 24.53C405.867 24.53 400.152 29.48 400.152 37.445C400.152 45.41 405.732 50.36 413.112 50.36C420.492 50.36 426.252 45.41 426.252 37.445ZM407.982 37.445C407.982 33.17 410.412 31.19 413.202 31.19C415.902 31.19 418.422 33.17 418.422 37.445C418.422 41.675 415.857 43.7 413.112 43.7C410.322 43.7 407.982 41.675 407.982 37.445ZM428.804 37.4C428.804 45.32 433.709 50.36 439.874 50.36C443.564 50.36 446.219 48.695 447.614 46.4V50H455.309V16.7H447.614V28.355C446.084 26.06 443.204 24.53 439.874 24.53C433.709 24.53 428.804 29.48 428.804 37.4ZM447.614 37.445C447.614 41.45 445.049 43.655 442.124 43.655C439.244 43.655 436.634 41.405 436.634 37.4C436.634 33.395 439.244 31.235 442.124 31.235C445.049 31.235 447.614 33.44 447.614 37.445ZM485.671 24.89H477.976V38.525C477.976 41.945 476.086 43.835 473.116 43.835C470.236 43.835 468.301 41.945 468.301 38.525V24.89H460.651V39.56C460.651 46.265 464.566 50.27 470.371 50.27C473.746 50.27 476.446 48.74 477.976 46.58V50H485.671V24.89ZM489.668 37.445C489.668 45.41 494.888 50.36 502.268 50.36C508.568 50.36 513.023 46.715 514.328 40.91H506.138C505.463 42.755 504.248 43.79 502.133 43.79C499.388 43.79 497.498 41.63 497.498 37.445C497.498 33.26 499.388 31.1 502.133 31.1C504.248 31.1 505.508 32.225 506.138 33.98H514.328C513.023 27.995 508.568 24.53 502.268 24.53C494.888 24.53 489.668 29.525 489.668 37.445ZM519.659 41.27C519.659 47.795 523.304 50 528.524 50H532.439V43.475H529.694C527.984 43.475 527.354 42.845 527.354 41.36V31.28H532.394V24.89H527.354V18.77H519.659V24.89H516.599V31.28H519.659V41.27ZM557.111 42.71C556.976 33.35 543.386 36.185 543.386 32.18C543.386 30.965 544.376 30.245 546.176 30.245C548.336 30.245 549.641 31.37 549.866 33.08H556.976C556.481 28.13 552.881 24.53 546.401 24.53C539.831 24.53 536.186 28.04 536.186 32.315C536.186 41.54 549.866 38.615 549.866 42.665C549.866 43.79 548.831 44.69 546.851 44.69C544.736 44.69 543.161 43.52 542.981 41.765H535.376C535.736 46.625 540.236 50.36 546.941 50.36C553.241 50.36 557.111 47.075 557.111 42.71ZM3.555 118H11.25V99.28H15.39V92.89H11.25V92.665C11.25 90.01 12.285 89.11 15.255 89.29V82.765C7.605 82.36 3.555 85.6 3.555 92.17V92.89H0.765V99.28H3.555V118ZM43.5758 105.445C43.5758 97.48 37.9058 92.53 30.5258 92.53C23.1908 92.53 17.4758 97.48 17.4758 105.445C17.4758 113.41 23.0558 118.36 30.4358 118.36C37.8158 118.36 43.5758 113.41 43.5758 105.445ZM25.3058 105.445C25.3058 101.17 27.7358 99.19 30.5258 99.19C33.2258 99.19 35.7458 101.17 35.7458 105.445C35.7458 109.675 33.1808 111.7 30.4358 111.7C27.6458 111.7 25.3058 109.675 25.3058 105.445ZM55.3532 106.345C55.3532 102.025 57.4682 100.765 61.1132 100.765H63.2282V92.62C59.8532 92.62 57.1082 94.42 55.3532 97.075V92.89H47.6582V118H55.3532V106.345Z" fill="#D74848"/>
<path d="M221.485 96.445V92.89H213.79V129.97H221.485V114.49C222.88 116.605 225.535 118.36 229.225 118.36C235.39 118.36 240.295 113.32 240.295 105.4C240.295 97.48 235.39 92.53 229.225 92.53C225.535 92.53 222.88 94.24 221.485 96.445ZM232.465 105.4C232.465 109.405 229.855 111.655 226.93 111.655C224.05 111.655 221.44 109.45 221.44 105.445C221.44 101.44 224.05 99.235 226.93 99.235C229.855 99.235 232.465 101.395 232.465 105.4ZM255.402 98.695C257.967 98.695 260.127 100.27 260.127 103.015H250.497C250.947 100.225 252.882 98.695 255.402 98.695ZM267.417 109.675H259.227C258.597 111.025 257.382 112.105 255.222 112.105C252.747 112.105 250.722 110.575 250.452 107.29H267.867C267.957 106.525 268.002 105.76 268.002 105.04C268.002 97.39 262.827 92.53 255.492 92.53C248.022 92.53 242.802 97.48 242.802 105.445C242.802 113.41 248.112 118.36 255.492 118.36C261.747 118.36 266.202 114.58 267.417 109.675ZM296.631 105.445C296.631 97.48 290.961 92.53 283.581 92.53C276.246 92.53 270.531 97.48 270.531 105.445C270.531 113.41 276.111 118.36 283.491 118.36C290.871 118.36 296.631 113.41 296.631 105.445ZM278.361 105.445C278.361 101.17 280.791 99.19 283.581 99.19C286.281 99.19 288.801 101.17 288.801 105.445C288.801 109.675 286.236 111.7 283.491 111.7C280.701 111.7 278.361 109.675 278.361 105.445ZM308.409 96.445V92.89H300.714V129.97H308.409V114.49C309.804 116.605 312.459 118.36 316.149 118.36C322.314 118.36 327.219 113.32 327.219 105.4C327.219 97.48 322.314 92.53 316.149 92.53C312.459 92.53 309.804 94.24 308.409 96.445ZM319.389 105.4C319.389 109.405 316.779 111.655 313.854 111.655C310.974 111.655 308.364 109.45 308.364 105.445C308.364 101.44 310.974 99.235 313.854 99.235C316.779 99.235 319.389 101.395 319.389 105.4ZM331.256 118H338.951V84.7H331.256V118ZM355.597 98.695C358.162 98.695 360.322 100.27 360.322 103.015H350.692C351.142 100.225 353.077 98.695 355.597 98.695ZM367.612 109.675H359.422C358.792 111.025 357.577 112.105 355.417 112.105C352.942 112.105 350.917 110.575 350.647 107.29H368.062C368.152 106.525 368.197 105.76 368.197 105.04C368.197 97.39 363.022 92.53 355.687 92.53C348.217 92.53 342.997 97.48 342.997 105.445C342.997 113.41 348.307 118.36 355.687 118.36C361.942 118.36 366.397 114.58 367.612 109.675Z" fill="#D74848"/>
<path d="M101.585 92.89H93.89V106.525C93.89 109.945 92 111.835 89.03 111.835C86.15 111.835 84.215 109.945 84.215 106.525V92.89H76.565V107.56C76.565 114.265 80.48 118.27 86.285 118.27C89.66 118.27 92.36 116.74 93.89 114.58V118H101.585V92.89ZM127.497 110.71C127.362 101.35 113.772 104.185 113.772 100.18C113.772 98.965 114.762 98.245 116.562 98.245C118.722 98.245 120.027 99.37 120.252 101.08H127.362C126.867 96.13 123.267 92.53 116.787 92.53C110.217 92.53 106.572 96.04 106.572 100.315C106.572 109.54 120.252 106.615 120.252 110.665C120.252 111.79 119.217 112.69 117.237 112.69C115.122 112.69 113.547 111.52 113.367 109.765H105.762C106.122 114.625 110.622 118.36 117.327 118.36C123.627 118.36 127.497 115.075 127.497 110.71ZM143.275 98.695C145.84 98.695 148 100.27 148 103.015H138.37C138.82 100.225 140.755 98.695 143.275 98.695ZM155.29 109.675H147.1C146.47 111.025 145.255 112.105 143.095 112.105C140.62 112.105 138.595 110.575 138.325 107.29H155.74C155.83 106.525 155.875 105.76 155.875 105.04C155.875 97.39 150.7 92.53 143.365 92.53C135.895 92.53 130.675 97.48 130.675 105.445C130.675 113.41 135.985 118.36 143.365 118.36C149.62 118.36 154.075 114.58 155.29 109.675ZM167.63 106.345C167.63 102.025 169.745 100.765 173.39 100.765H175.505V92.62C172.13 92.62 169.385 94.42 167.63 97.075V92.89H159.935V118H167.63V106.345ZM199.568 110.71C199.433 101.35 185.843 104.185 185.843 100.18C185.843 98.965 186.833 98.245 188.633 98.245C190.793 98.245 192.098 99.37 192.323 101.08H199.433C198.938 96.13 195.338 92.53 188.858 92.53C182.288 92.53 178.643 96.04 178.643 100.315C178.643 109.54 192.323 106.615 192.323 110.665C192.323 111.79 191.288 112.69 189.308 112.69C187.193 112.69 185.618 111.52 185.438 109.765H177.833C178.193 114.625 182.693 118.36 189.398 118.36C195.698 118.36 199.568 115.075 199.568 110.71Z" fill="#D74848"/>
<line x1="192.746" y1="80.3057" x2="77.3057" y2="132.254" stroke="#130F49" stroke-width="5" stroke-linecap="round" stroke-linejoin="round"/>
</svg>
