<svg xmlns="http://www.w3.org/2000/svg" xmlns:xlink="http://www.w3.org/1999/xlink" width="400" zoomAndPan="magnify" viewBox="0 0 300 37.5" height="50" preserveAspectRatio="xMidYMid meet" version="1.0"><defs><g/></defs><g fill="#6667ab" fill-opacity="1"><g transform="translate(6.067537, 25.73607)"><g><path d="M 2 0 L 2 -16.4375 L 7.28125 -16.4375 L 7.28125 0 Z M 2 0 "/></g></g></g><g fill="#6667ab" fill-opacity="1"><g transform="translate(15.357184, 25.73607)"><g><path d="M 3.421875 -7.90625 L 1.140625 -7.90625 L 2.84375 -12.25 L 1.140625 -12.25 L 1.140625 -16.4375 L 5.59375 -16.4375 L 5.59375 -12.5 Z M 3.421875 -7.90625 "/></g></g></g><g fill="#6667ab" fill-opacity="1"><g transform="translate(21.996052, 25.73607)"><g><path d="M 15.890625 0 L 15.890625 -5.921875 C 15.890625 -6.660156 15.914062 -7.414062 15.96875 -8.1875 C 16.019531 -8.957031 16.078125 -9.601562 16.140625 -10.125 C 16.210938 -10.65625 16.253906 -10.992188 16.265625 -11.140625 L 16.171875 -11.140625 L 13.140625 0 L 9 0 L 5.953125 -11.109375 L 5.859375 -11.109375 C 5.867188 -10.960938 5.910156 -10.628906 5.984375 -10.109375 C 6.054688 -9.597656 6.125 -8.957031 6.1875 -8.1875 C 6.25 -7.414062 6.28125 -6.660156 6.28125 -5.921875 L 6.28125 0 L 1.4375 0 L 1.4375 -16.4375 L 8.890625 -16.4375 L 11.375 -6.953125 L 11.46875 -6.953125 L 13.921875 -16.4375 L 21.125 -16.4375 L 21.125 0 Z M 15.890625 0 "/></g></g></g><g fill="#6667ab" fill-opacity="1"><g transform="translate(44.53956, 25.73607)"><g/></g></g><g fill="#6667ab" fill-opacity="1"><g transform="translate(52.491875, 25.73607)"><g><path d="M 15.890625 0 L 15.890625 -5.921875 C 15.890625 -6.660156 15.914062 -7.414062 15.96875 -8.1875 C 16.019531 -8.957031 16.078125 -9.601562 16.140625 -10.125 C 16.210938 -10.65625 16.253906 -10.992188 16.265625 -11.140625 L 16.171875 -11.140625 L 13.140625 0 L 9 0 L 5.953125 -11.109375 L 5.859375 -11.109375 C 5.867188 -10.960938 5.910156 -10.628906 5.984375 -10.109375 C 6.054688 -9.597656 6.125 -8.957031 6.1875 -8.1875 C 6.25 -7.414062 6.28125 -6.660156 6.28125 -5.921875 L 6.28125 0 L 1.4375 0 L 1.4375 -16.4375 L 8.890625 -16.4375 L 11.375 -6.953125 L 11.46875 -6.953125 L 13.921875 -16.4375 L 21.125 -16.4375 L 21.125 0 Z M 15.890625 0 "/></g></g></g><g fill="#6667ab" fill-opacity="1"><g transform="translate(75.035383, 25.73607)"><g><path d="M 12.78125 0 L 12.09375 -2.3125 L 6.328125 -2.3125 L 5.640625 0 L 0.234375 0 L 6.234375 -16.4375 L 12.375 -16.4375 L 18.375 0 Z M 7.4375 -6 L 10.984375 -6 L 9.265625 -11.84375 L 9.171875 -11.84375 Z M 7.4375 -6 "/></g></g></g><g fill="#6667ab" fill-opacity="1"><g transform="translate(93.614678, 25.73607)"><g><path d="M 13.515625 0 L 6.625 -7.984375 L 6.625 0 L 1.765625 0 L 1.765625 -16.4375 L 6.375 -16.4375 L 13.28125 -8.34375 L 13.28125 -16.4375 L 18.140625 -16.4375 L 18.140625 0 Z M 13.515625 0 "/></g></g></g><g fill="#6667ab" fill-opacity="1"><g transform="translate(113.507418, 25.73607)"><g><path d="M 8.703125 -3.9375 L 16.515625 -3.9375 L 16.515625 0 L 0.578125 0 L 0.578125 -1.703125 L 8.1875 -12.5 L 1.140625 -12.5 L 1.140625 -16.4375 L 16.3125 -16.4375 L 16.3125 -14.734375 Z M 8.703125 -3.9375 "/></g></g></g><g fill="#6667ab" fill-opacity="1"><g transform="translate(130.74938, 25.73607)"><g><path d="M 9.9375 -16.71875 C 12.769531 -16.71875 14.957031 -15.992188 16.5 -14.546875 C 18.050781 -13.097656 18.828125 -10.988281 18.828125 -8.21875 C 18.828125 -5.445312 18.050781 -3.335938 16.5 -1.890625 C 14.957031 -0.441406 12.769531 0.28125 9.9375 0.28125 C 7.101562 0.28125 4.914062 -0.4375 3.375 -1.875 C 1.84375 -3.3125 1.078125 -5.425781 1.078125 -8.21875 C 1.078125 -11.007812 1.84375 -13.125 3.375 -14.5625 C 4.914062 -16 7.101562 -16.71875 9.9375 -16.71875 Z M 9.9375 -12.78125 C 8.8125 -12.78125 7.953125 -12.4375 7.359375 -11.75 C 6.765625 -11.070312 6.46875 -10.148438 6.46875 -8.984375 L 6.46875 -7.453125 C 6.46875 -6.285156 6.765625 -5.359375 7.359375 -4.671875 C 7.953125 -3.992188 8.8125 -3.65625 9.9375 -3.65625 C 11.070312 -3.65625 11.9375 -3.992188 12.53125 -4.671875 C 13.125 -5.359375 13.421875 -6.285156 13.421875 -7.453125 L 13.421875 -8.984375 C 13.421875 -10.148438 13.125 -11.070312 12.53125 -11.75 C 11.9375 -12.4375 11.070312 -12.78125 9.9375 -12.78125 Z M 9.9375 -12.78125 "/></g></g></g><g fill="#6667ab" fill-opacity="1"><g transform="translate(150.64212, 25.73607)"><g><path d="M 9.9375 -16.71875 C 12.769531 -16.71875 14.957031 -15.992188 16.5 -14.546875 C 18.050781 -13.097656 18.828125 -10.988281 18.828125 -8.21875 C 18.828125 -5.445312 18.050781 -3.335938 16.5 -1.890625 C 14.957031 -0.441406 12.769531 0.28125 9.9375 0.28125 C 7.101562 0.28125 4.914062 -0.4375 3.375 -1.875 C 1.84375 -3.3125 1.078125 -5.425781 1.078125 -8.21875 C 1.078125 -11.007812 1.84375 -13.125 3.375 -14.5625 C 4.914062 -16 7.101562 -16.71875 9.9375 -16.71875 Z M 9.9375 -12.78125 C 8.8125 -12.78125 7.953125 -12.4375 7.359375 -11.75 C 6.765625 -11.070312 6.46875 -10.148438 6.46875 -8.984375 L 6.46875 -7.453125 C 6.46875 -6.285156 6.765625 -5.359375 7.359375 -4.671875 C 7.953125 -3.992188 8.8125 -3.65625 9.9375 -3.65625 C 11.070312 -3.65625 11.9375 -3.992188 12.53125 -4.671875 C 13.125 -5.359375 13.421875 -6.285156 13.421875 -7.453125 L 13.421875 -8.984375 C 13.421875 -10.148438 13.125 -11.070312 12.53125 -11.75 C 11.9375 -12.4375 11.070312 -12.78125 9.9375 -12.78125 Z M 9.9375 -12.78125 "/></g></g></g><g fill="#6667ab" fill-opacity="1"><g transform="translate(170.534861, 25.73607)"><g><path d="M 15.890625 0 L 15.890625 -5.921875 C 15.890625 -6.660156 15.914062 -7.414062 15.96875 -8.1875 C 16.019531 -8.957031 16.078125 -9.601562 16.140625 -10.125 C 16.210938 -10.65625 16.253906 -10.992188 16.265625 -11.140625 L 16.171875 -11.140625 L 13.140625 0 L 9 0 L 5.953125 -11.109375 L 5.859375 -11.109375 C 5.867188 -10.960938 5.910156 -10.628906 5.984375 -10.109375 C 6.054688 -9.597656 6.125 -8.957031 6.1875 -8.1875 C 6.25 -7.414062 6.28125 -6.660156 6.28125 -5.921875 L 6.28125 0 L 1.4375 0 L 1.4375 -16.4375 L 8.890625 -16.4375 L 11.375 -6.953125 L 11.46875 -6.953125 L 13.921875 -16.4375 L 21.125 -16.4375 L 21.125 0 Z M 15.890625 0 "/></g></g></g><g fill="#6667ab" fill-opacity="1"><g transform="translate(193.07837, 25.73607)"><g><path d="M 12.78125 0 L 12.09375 -2.3125 L 6.328125 -2.3125 L 5.640625 0 L 0.234375 0 L 6.234375 -16.4375 L 12.375 -16.4375 L 18.375 0 Z M 7.4375 -6 L 10.984375 -6 L 9.265625 -11.84375 L 9.171875 -11.84375 Z M 7.4375 -6 "/></g></g></g><g fill="#6667ab" fill-opacity="1"><g transform="translate(211.657664, 25.73607)"><g/></g></g><g fill="#6667ab" fill-opacity="1"><g transform="translate(219.60999, 25.73607)"><g><path d="M 12.78125 0 L 12.09375 -2.3125 L 6.328125 -2.3125 L 5.640625 0 L 0.234375 0 L 6.234375 -16.4375 L 12.375 -16.4375 L 18.375 0 Z M 7.4375 -6 L 10.984375 -6 L 9.265625 -11.84375 L 9.171875 -11.84375 Z M 7.4375 -6 "/></g></g></g><g fill="#6667ab" fill-opacity="1"><g transform="translate(238.189284, 25.73607)"><g><path d="M 12.703125 -16.4375 C 13.535156 -16.4375 14.296875 -16.265625 14.984375 -15.921875 C 15.679688 -15.578125 16.234375 -15.09375 16.640625 -14.46875 C 17.046875 -13.851562 17.25 -13.164062 17.25 -12.40625 C 17.25 -10.375 16.332031 -9.097656 14.5 -8.578125 L 14.5 -8.484375 C 16.582031 -8.003906 17.625 -6.632812 17.625 -4.375 C 17.625 -3.507812 17.410156 -2.742188 16.984375 -2.078125 C 16.566406 -1.421875 15.992188 -0.910156 15.265625 -0.546875 C 14.535156 -0.179688 13.734375 0 12.859375 0 L 1.765625 0 L 1.765625 -16.4375 Z M 7.046875 -10.03125 L 10.671875 -10.03125 C 11.023438 -10.03125 11.316406 -10.15625 11.546875 -10.40625 C 11.773438 -10.65625 11.890625 -10.960938 11.890625 -11.328125 L 11.890625 -11.5625 C 11.890625 -11.914062 11.769531 -12.210938 11.53125 -12.453125 C 11.300781 -12.703125 11.015625 -12.828125 10.671875 -12.828125 L 7.046875 -12.828125 Z M 7.046875 -3.828125 L 11.0625 -3.828125 C 11.414062 -3.828125 11.707031 -3.945312 11.9375 -4.1875 C 12.164062 -4.4375 12.28125 -4.742188 12.28125 -5.109375 L 12.28125 -5.34375 C 12.28125 -5.71875 12.164062 -6.023438 11.9375 -6.265625 C 11.707031 -6.515625 11.414062 -6.640625 11.0625 -6.640625 L 7.046875 -6.640625 Z M 7.046875 -3.828125 "/></g></g></g><g fill="#6667ab" fill-opacity="1"><g transform="translate(256.768578, 25.73607)"><g><path d="M 2 0 L 2 -16.4375 L 7.28125 -16.4375 L 7.28125 0 Z M 2 0 "/></g></g></g><g fill="#6667ab" fill-opacity="1"><g transform="translate(266.058214, 25.73607)"><g><path d="M 8.890625 -16.4375 C 14.640625 -16.4375 17.515625 -13.695312 17.515625 -8.21875 C 17.515625 -2.738281 14.640625 0 8.890625 0 L 1.765625 0 L 1.765625 -16.4375 Z M 7.046875 -3.9375 L 8.796875 -3.9375 C 11.003906 -3.9375 12.109375 -5.125 12.109375 -7.5 L 12.109375 -8.9375 C 12.109375 -11.3125 11.003906 -12.5 8.796875 -12.5 L 7.046875 -12.5 Z M 7.046875 -3.9375 "/></g></g></g><g fill="#6667ab" fill-opacity="1"><g transform="translate(284.637508, 25.73607)"><g><path d="M 2 0 L 2 -16.4375 L 7.28125 -16.4375 L 7.28125 0 Z M 2 0 "/></g></g></g></svg>